<svg xmlns="http://www.w3.org/2000/svg" width="32" height="32"><path fill="#563d7c" d="M26.667 0H5.334A5.347 5.347 0 0 0 .001 5.333v21.333c0 2.933 2.4 5.333 5.333 5.333h21.333c2.933 0 5.333-2.4 5.333-5.333V5.333C32 2.4 29.6 0 26.667 0zm-2.916 22.473a4.153 4.153 0 0 1-1.231 1.645c-.56.453-1.269.827-2.143 1.093-.872.271-1.909.407-3.111.407H8.69V6.951h9.069c1.677 0 3.021.377 4.027 1.147 1.013.773 1.517 1.925 1.517 3.48 0 .94-.229 1.747-.691 2.413-.459.663-1.12 1.181-1.973 1.541v.061c1.139.24 2.02.78 2.6 1.62s.877 1.901.877 3.183c0 .717-.139 1.4-.4 2.037zm-3.702-4.6c-.547-.5-1.315-.744-2.307-.744h-5.763v5.824h5.779c.987 0 1.76-.256 2.307-.773.547-.513.827-1.245.827-2.187-.009-.92-.28-1.632-.827-2.12zm-.8-3.764c.528-.448.787-1.089.787-1.925 0-.939-.233-1.605-.707-1.987-.469-.38-1.147-.577-2.037-.577h-5.333v5.151h5.333c.777 0 1.44-.227 1.957-.661z"/></svg>