<svg width="32" height="32" fill="none" xmlns="http://www.w3.org/2000/svg"><g clip-path="url(#a)"><path d="m30.216 0-2.57 28.797L16.09 32 4.568 28.801 2 0h28.216Z" fill="#E44D26"/><path d="m16.108 29.552 9.337-2.589 2.197-24.608H16.108v27.197Z" fill="#F16529"/><path d="M11.11 9.42h4.998V5.887H7.251l.084.948.868 9.734h7.905v-3.532h-4.674L11.11 9.42Zm.797 8.915H8.361l.495 5.547 7.236 2.008.016-.004V22.21l-.015.004-3.934-1.062-.252-2.818Z" fill="#EBEBEB"/><path d="M16.096 16.57h4.35l-.41 4.58-3.94 1.064v3.675l7.241-2.007.053-.597.83-9.3.087-.948h-8.211v3.532Zm0-7.159v.009h8.532l.07-.794.162-1.791.084-.948h-8.848v3.524Z" fill="#fff"/></g><defs><clipPath id="a"><path fill="#fff" d="M0 0h32v32H0z"/></clipPath></defs></svg>