<svg width="32" height="32" fill="none" xmlns="http://www.w3.org/2000/svg"><path d="M0 0h32v32H0V0Z" fill="#F7DF1E"/><path d="m8.414 26.741 2.449-1.482c.472.838.902 1.547 1.933 1.547.988 0 1.611-.387 1.611-1.89V14.69h3.007v10.267c0 3.115-1.826 4.533-4.49 4.533-2.405 0-3.801-1.246-4.51-2.75m10.634-.32 2.448-1.418c.645 1.052 1.483 1.826 2.965 1.826 1.246 0 2.04-.623 2.04-1.483 0-1.03-.816-1.396-2.19-1.997l-.752-.323c-2.17-.923-3.61-2.083-3.61-4.532 0-2.255 1.72-3.974 4.404-3.974 1.912 0 3.287.666 4.275 2.406l-2.342 1.504c-.515-.924-1.074-1.29-1.933-1.29-.88 0-1.439.56-1.439 1.29 0 .902.559 1.267 1.847 1.826l.752.322c2.556 1.095 3.995 2.212 3.995 4.725 0 2.707-2.126 4.189-4.983 4.189-2.792 0-4.597-1.332-5.477-3.072" fill="#000"/></svg>