<svg xmlns="http://www.w3.org/2000/svg" width="32" height="32"><path fill="#c69" d="M16 0c8.836 0 16 7.164 16 16s-7.164 16-16 16S0 24.836 0 16 7.164 0 16 0zm-3.18 21.331c.233.86.208 1.664-.032 2.389l-.087.24c-.032.081-.069.16-.104.235a4.492 4.492 0 0 1-.74 1.08c-.931 1.012-2.229 1.396-2.787 1.073-.6-.349-.301-1.78.779-2.92 1.161-1.224 2.827-2.012 2.827-2.012v-.004zM26.035 6.849c-.723-2.844-5.436-3.779-9.896-2.193-2.652.943-5.525 2.424-7.591 4.356-2.457 2.295-2.848 4.295-2.687 5.131.569 2.948 4.609 4.876 6.271 6.307v.008c-.489.24-4.075 2.039-4.915 3.9-.9 1.96.14 3.361.82 3.54 2.1.581 4.26-.48 5.42-2.199 1.12-1.681 1.021-3.841.539-4.901.661-.18 1.44-.26 2.44-.139 2.801.32 3.361 2.08 3.24 2.8-.12.719-.697 1.139-.899 1.259-.2.121-.26.16-.241.241.02.12.121.12.28.1.22-.04 1.461-.6 1.521-1.961.06-1.72-1.581-3.639-4.5-3.6-1.2.021-1.961.121-2.5.341a.479.479 0 0 0-.14-.14c-1.8-1.94-5.14-3.3-5-5.88.04-.94.38-3.419 6.4-6.419 4.94-2.461 8.881-1.78 9.561-.28.977 2.139-2.101 6.12-7.241 6.699-1.96.22-2.98-.539-3.241-.82-.279-.3-.319-.32-.419-.259-.16.08-.06.34 0 .5.16.4.78 1.1 1.861 1.46.939.3 3.24.479 6-.6 3.099-1.199 5.519-4.54 4.819-7.34z"/></svg>