<svg width="80" height="70.7" viewBox="0 0 70.7 80" fill="none" xmlns="http://www.w3.org/2000/svg"><defs xmlns="http://www.w3.org/2000/svg"><linearGradient id="a" x1="11.67" y1="73.36" x2="70.61" y2="44.72" gradientTransform="matrix(1 0 0 -1 0 73.4)" gradientUnits="userSpaceOnUse"><stop offset=".1" stop-color="#76b3e1"/><stop offset=".3" stop-color="#dcf2fd"/><stop offset="1" stop-color="#76b3e1"/></linearGradient><linearGradient id="b" x1="44" y1="59.33" x2="33.68" y2="24.96" gradientTransform="matrix(1 0 0 -1 0 73.4)" gradientUnits="userSpaceOnUse"><stop offset="0" stop-color="#76b3e1"/><stop offset=".5" stop-color="#4377bb"/><stop offset="1" stop-color="#1f3b77"/></linearGradient><linearGradient id="c" x1="7.34" y1="44.34" x2="66.94" y2="3.82" gradientTransform="matrix(1 0 0 -1 0 73.4)" gradientUnits="userSpaceOnUse"><stop offset="0" stop-color="#315aa9"/><stop offset=".5" stop-color="#518ac8"/><stop offset="1" stop-color="#315aa9"/></linearGradient><linearGradient id="d" x1="34.25" y1="39.49" x2="10.2" y2="-48.7" gradientTransform="matrix(1 0 0 -1 0 73.4)" gradientUnits="userSpaceOnUse"><stop offset="0" stop-color="#4377bb"/><stop offset=".5" stop-color="#1a336b"/><stop offset="1" stop-color="#1a336b"/></linearGradient></defs><path fill="#76b3e1" d="M75.81 15.35S50.86-3.49 31.5.91l-1.7.47A12.35 12.35 0 0 0 23.22 6a11.18 11.18 0 0 0-.71 1.18l-7.15 12.15 12.35 2.41a22 22 0 0 0 17.61 3.46l22 4.3Z"/><path style="opacity:.3;isolation:isolate;fill:url(#a)" d="M75.81 15.35S50.86-3.49 31.5.91l-1.7.47A12.35 12.35 0 0 0 23.22 6a11.18 11.18 0 0 0-.71 1.18l-7.15 12.15 12.35 2.41a22 22 0 0 0 17.61 3.46l22 4.3Z"/><path style="fill:#518ac8" d="m23 15.11-1.71.48c-7.9 2.55-10.6 9.94-6.06 16.42a21.12 21.12 0 0 0 22.54 7.1l29.52-9.61S42.39 10.71 23 15.11Z"/><path style="opacity:.3;isolation:isolate;fill:url(#b)" d="m23 15.11-1.71.48c-7.9 2.55-10.6 9.94-6.06 16.42a21.12 21.12 0 0 0 22.54 7.1l29.52-9.61S42.39 10.71 23 15.11Z"/><path style="fill:url(#c)" d="M61.89 36.42a21.11 21.11 0 0 0-22.58-7.15L9.82 38.83.54 55.35l52.83 9 9.47-16.85c1.89-3.23 1.7-7.3-.95-11.08Z"/><path style="fill:url(#d)" d="M52.61 52.94a21.14 21.14 0 0 0-22.53-7.15L.54 55.35s25 18.84 44.31 14.44l1.7-.47c7.91-2.51 10.61-9.9 6.06-16.38Z"/></svg>