<svg width="32" height="32" fill="none" xmlns="http://www.w3.org/2000/svg"><path d="M27.534 4.358C24.59.144 18.772-1.104 14.567 1.575L7.182 6.28a8.467 8.467 0 0 0-3.83 5.664 8.929 8.929 0 0 0 .879 5.732 8.478 8.478 0 0 0-1.266 3.166 9.022 9.022 0 0 0 1.543 6.83c2.945 4.214 8.762 5.463 12.967 2.784l7.386-4.687a8.496 8.496 0 0 0 3.829-5.664 8.927 8.927 0 0 0-.881-5.729 8.533 8.533 0 0 0 1.268-3.166 9.033 9.033 0 0 0-1.543-6.83" fill="#FF3E00"/><path d="M13.845 28.08a5.87 5.87 0 0 1-6.298-2.336 5.42 5.42 0 0 1-.926-4.106c.042-.231.1-.46.175-.682l.14-.425.379.283a9.567 9.567 0 0 0 2.88 1.433l.283.082-.026.283a1.67 1.67 0 0 0 .31 1.09 1.77 1.77 0 0 0 1.896.703c.16-.043.313-.11.454-.198l7.374-4.707c.366-.23.618-.605.694-1.03a1.634 1.634 0 0 0-.284-1.238A1.77 1.77 0 0 0 19 16.53a1.62 1.62 0 0 0-.453.198l-2.832 1.798a5.41 5.41 0 0 1-1.498.657A5.868 5.868 0 0 1 7.93 16.85a5.426 5.426 0 0 1-.92-4.107 5.097 5.097 0 0 1 2.3-3.415l7.397-4.706c.46-.293.963-.515 1.49-.657A5.865 5.865 0 0 1 24.492 6.3a5.42 5.42 0 0 1 .929 4.106 5.7 5.7 0 0 1-.176.688l-.142.425-.376-.283a9.566 9.566 0 0 0-2.889-1.444l-.283-.083.026-.283a1.66 1.66 0 0 0-.3-1.098 1.764 1.764 0 0 0-1.887-.683 1.62 1.62 0 0 0-.453.198l-7.388 4.698c-.365.23-.617.604-.694 1.028-.075.435.027.881.283 1.24a1.77 1.77 0 0 0 1.883.703c.16-.044.313-.11.454-.198l2.831-1.796a5.27 5.27 0 0 1 1.501-.66 5.862 5.862 0 0 1 6.296 2.334 5.426 5.426 0 0 1 .928 4.106 5.097 5.097 0 0 1-2.302 3.415l-7.388 4.707a5.43 5.43 0 0 1-1.501.66Z" fill="#fff"/></svg>