<svg xmlns="http://www.w3.org/2000/svg" width="32" height="32"><path fill="#38b2ac" d="M16.001 6.4c-4.267 0-6.933 2.133-8 6.4 1.6-2.133 3.467-2.933 5.6-2.4 1.217.304 2.087 1.187 3.051 2.165C18.221 14.157 20.036 16 24.001 16c4.267 0 6.933-2.133 8-6.4-1.6 2.133-3.467 2.933-5.6 2.4-1.217-.304-2.087-1.187-3.051-2.165C21.782 8.243 19.967 6.4 16.001 6.4zm-8 9.6c-4.267 0-6.933 2.133-8 6.4 1.6-2.133 3.467-2.933 5.6-2.4 1.217.304 2.087 1.187 3.051 2.165 1.569 1.592 3.384 3.435 7.349 3.435 4.267 0 6.933-2.133 8-6.4-1.6 2.133-3.467 2.933-5.6 2.4-1.217-.304-2.087-1.187-3.051-2.165C13.782 17.843 11.967 16 8.001 16z"/></svg>