<svg xmlns="http://www.w3.org/2000/svg" version="1.1" id="Layer_1" x="0" y="0" viewBox="0 0 640 640" style="enable-background:new 0 0 640 640" xml:space="preserve"><style>.st1,.st2{fill:#fff;stroke:#000;stroke-width:7;stroke-miterlimit:10}.st2{fill:none}</style><path style="fill:#fff" d="M171.7 621.7 20 18.4l600 168.5"/><path class="st1" d="m245.8 362.4 37.9 150.9m111.8-108.5-149.7-42.4m37.9 150.9 111.8-108.5M283.7 513.3 134 470.9"/><path class="st2" d="m134 470.9 37.9 151 111.8-108.6"/><path class="st1" d="m134 470.9 111.8-108.5m0 0 111.9-108.6m0 0 111.8-108.5m-149.7-42.4 37.9 150.9m0 0-149.8-42.3m0 0 37.9 150.9m0 0L96.1 320m0 0L134 470.9M58.2 169.1 96.1 320m111.8-108.5L58.2 169.1M96.1 320l111.8-108.5m0-.1 111.9-108.5m0 0L170 60.5m0 0 37.9 150.9"/><path class="st2" d="m58.2 169.1-37.9-151L170 60.5"/><path class="st1" d="M58.2 169.1 170 60.5"/><path class="st2" d="m507.4 296.2 111.8-108.5-149.7-42.4"/><path class="st1" d="m469.5 145.3 37.9 150.9m0 0-149.7-42.4m0 0 37.8 151m0 0 111.9-108.6m-37.9-150.9-149.7-42.4"/></svg>